<svg width="23" height="18" viewBox="0 0 23 18" fill="none" xmlns="http://www.w3.org/2000/svg">
<path d="M10.7025 0.131836H7.83107C7.2958 0.131836 6.82403 0.285159 6.41578 0.591806C6.00752 0.871236 5.71448 1.26679 5.53666 1.77848L1.01861 14.4835C0.942401 14.7139 0.904297 14.9443 0.904297 15.1748C0.9297 15.7863 1.13383 16.2834 1.51668 16.6663C1.89954 17.0491 2.39671 17.2533 3.00819 17.2787H10.7025V14.8291C10.7025 14.4717 10.8177 14.1786 11.0481 13.95C11.2768 13.7196 11.5698 13.6043 11.9273 13.6043C12.2847 13.6043 12.5777 13.7196 12.8064 13.95C13.0368 14.1786 13.152 14.4717 13.152 14.8291V17.2787H20.8463C21.4578 17.2533 21.955 17.0491 22.3378 16.6663C22.7207 16.2834 22.9248 15.7863 22.9502 15.1748C22.9502 14.9443 22.9121 14.7139 22.8359 14.4835L18.3179 1.77848C18.14 1.26679 17.847 0.871236 17.4387 0.591806C17.0305 0.285159 16.5587 0.131836 16.0234 0.131836H13.152V2.58138C13.152 2.93883 13.0368 3.23187 12.8064 3.4605C12.5777 3.69094 12.2847 3.80616 11.9273 3.80616C11.5698 3.80616 11.2768 3.69094 11.0481 3.4605C10.8177 3.23187 10.7025 2.93883 10.7025 2.58138V0.131836ZM13.152 7.48048V9.93002C13.152 10.2875 13.0368 10.5805 12.8064 10.8091C12.5777 11.0396 12.2847 11.1548 11.9273 11.1548C11.5698 11.1548 11.2768 11.0396 11.0481 10.8091C10.8177 10.5805 10.7025 10.2875 10.7025 9.93002V7.48048C10.7025 7.12302 10.8177 6.82999 11.0481 6.60136C11.2768 6.37092 11.5698 6.2557 11.9273 6.2557C12.2847 6.2557 12.5777 6.37092 12.8064 6.60136C13.0368 6.82999 13.152 7.12302 13.152 7.48048Z" fill="#26650B"/>
</svg>
