<svg width="12" height="12" viewBox="0 0 12 12" fill="none" xmlns="http://www.w3.org/2000/svg">
<path d="M3.96101 0.736149C3.86934 0.505873 3.72364 0.344352 3.52392 0.251586C3.30893 0.159912 3.08629 0.136994 2.85601 0.182831L0.830997 0.736149C0.416281 0.888939 0.193644 1.18797 0.163086 1.63325C0.178365 3.55185 0.646558 5.28602 1.56766 6.83575C2.48877 8.38548 3.72419 9.62089 5.27392 10.542C6.82364 11.4631 8.55781 11.9313 10.4764 11.9466C10.9217 11.916 11.2207 11.6934 11.3735 11.2787L11.9268 9.25365C11.9727 9.02338 11.9498 8.80074 11.8581 8.58574C11.7653 8.38602 11.6038 8.24033 11.3735 8.14865L9.16352 7.227C8.74989 7.08949 8.39738 7.18171 8.10599 7.50366L7.18434 8.63158C6.37128 8.24742 5.64225 7.74103 4.99726 7.11241C4.36863 6.46742 3.86224 5.73839 3.47809 4.92533L4.606 4.00368C4.92796 3.71228 5.02017 3.35977 4.88266 2.94615L3.96101 0.736149Z" fill="white"/>
</svg>
